name D:\school\WTK\thesis\model\3dpredictsim\Results\Batchsim_tmt_linear_v2\Pog_s1_tmt_aCst_d02_k1000_ig24_act.mot
datacolumns 128
datarows 4
range 0.65314605 0.69233481
endheader
time	pelvis_tilt	pelvis_list	pelvis_rotation	pelvis_tx	pelvis_ty	pelvis_tz	hip_flexion_l	hip_adduction_l	hip_rotation_l	hip_flexion_r	hip_adduction_r	hip_rotation_r	knee_angle_l	knee_angle_r	ankle_angle_l	ankle_angle_r	subtalar_angle_l	subtalar_angle_r	tmt_angle_l	tmt_angle_r	mtp_angle_l	mtp_angle_r	lumbar_extension	lumbar_bending	lumbar_rotation	arm_flex_l	arm_add_l	arm_rot_l	arm_flex_r	arm_add_r	arm_rot_r	elbow_flex_l	elbow_flex_r	pro_sup_l	pro_sup_r	glut_med1_l/activation	glut_med2_l/activation	glut_med3_l/activation	glut_min1_l/activation	glut_min2_l/activation	glut_min3_l/activation	semimem_l/activation	semiten_l/activation	bifemlh_l/activation	bifemsh_l/activation	sar_l/activation	add_long_l/activation	add_brev_l/activation	add_mag1_l/activation	add_mag2_l/activation	add_mag3_l/activation	tfl_l/activation	pect_l/activation	grac_l/activation	glut_max1_l/activation	glut_max2_l/activation	glut_max3_l/activation	iliacus_l/activation	psoas_l/activation	quad_fem_l/activation	gem_l/activation	peri_l/activation	rect_fem_l/activation	vas_med_l/activation	vas_int_l/activation	vas_lat_l/activation	med_gas_l/activation	lat_gas_l/activation	soleus_l/activation	tib_post_l/activation	flex_dig_l/activation	flex_hal_l/activation	tib_ant_l/activation	per_brev_l/activation	per_long_l/activation	per_tert_l/activation	ext_dig_l/activation	ext_hal_l/activation	ercspn_l/activation	intobl_l/activation	extobl_l/activation	glut_med1_r/activation	glut_med2_r/activation	glut_med3_r/activation	glut_min1_r/activation	glut_min2_r/activation	glut_min3_r/activation	semimem_r/activation	semiten_r/activation	bifemlh_r/activation	bifemsh_r/activation	sar_r/activation	add_long_r/activation	add_brev_r/activation	add_mag1_r/activation	add_mag2_r/activation	add_mag3_r/activation	tfl_r/activation	pect_r/activation	grac_r/activation	glut_max1_r/activation	glut_max2_r/activation	glut_max3_r/activation	iliacus_r/activation	psoas_r/activation	quad_fem_r/activation	gem_r/activation	peri_r/activation	rect_fem_r/activation	vas_med_r/activation	vas_int_r/activation	vas_lat_r/activation	med_gas_r/activation	lat_gas_r/activation	soleus_r/activation	tib_post_r/activation	flex_dig_r/activation	flex_hal_r/activation	tib_ant_r/activation	per_brev_r/activation	per_long_r/activation	per_tert_r/activation	ext_dig_r/activation	ext_hal_r/activation	ercspn_r/activation	intobl_r/activation	extobl_r/activation	
          0.65314605	         -1.62248973	         -1.78165924	         -9.73121986	          0.81643256	          0.86120763	          0.00424276	         28.76123146	         -3.15234435	         -0.08079489	        -16.46509776	          0.21807233	          4.58721263	         -7.37619128	        -17.82401308	          9.75335628	        -14.60835467	          2.96521032	          6.77710288	          0.02040715	          1.01861159	         -0.06306015	         36.82463318	          1.31918671	          5.41685403	          3.86791933	        -14.80580563	        -13.44971613	         13.93986644	          1.69289233	        -13.55088144	          9.82184730	         20.62470856	         32.38841163	         86.51662706	         86.51662706	          0.11174568	          0.06932237	          0.08826658	          0.05000372	          0.05000715	          0.05000672	          0.06894411	          0.06756308	          0.06415371	          0.06100339	          0.06088622	          0.05000175	          0.05000164	          0.18253923	          0.14224614	          0.12718126	          0.06090107	          0.05000621	          0.05001182	          0.06647652	          0.09160882	          0.12561175	          0.07742587	          0.07275078	          0.10217865	          0.05172655	          0.07630941	          0.05000053	          0.05008634	          0.05911949	          0.05004212	          0.06088581	          0.06088587	          0.06088577	          0.06088589	          0.05000561	          0.06088640	          0.43743503	          0.24898904	          0.15887966	          0.13802847	          0.53617522	          0.32421380	          0.05000008	          0.17511192	          0.13740423	          0.21580581	          0.05655017	          0.05380311	          0.21295963	          0.10993610	          0.06100631	          0.05000758	          0.05000088	          0.05000112	          0.05096404	          0.07556157	          0.20495004	          0.07549248	          0.05002108	          0.05000499	          0.05000150	          0.14229003	          0.11257134	          0.07032393	          0.05000746	          0.05000378	          0.05000303	          0.26305805	          0.46912529	          0.05001602	          0.09027938	          0.07414359	          0.25308694	          0.08397404	          0.08950469	          0.07979802	          0.05000009	          0.07673207	          0.05000006	          0.11781436	          0.09745604	          0.12204039	          0.08163360	          0.21618400	          0.18693135	          0.49219356	          0.40437427	          0.11348444	          0.05000013	          0.07196259	          0.06967869	
          0.66620897	         -1.61073106	         -2.02454896	         -9.75544731	          0.83904597	          0.86005414	          0.00389182	         28.19152757	         -3.15741909	          0.08139474	        -16.62427206	          0.07073515	          4.35836440	         -7.88377770	        -19.37028450	          9.04638916	        -17.73811076	          2.70763716	          7.32857019	          0.04027628	          0.75584111	         -0.05648117	         37.27680080	          1.62418551	          5.30142068	          3.97390364	        -16.98891597	        -13.46226660	         14.17786220	          1.33321102	        -13.62082200	         10.31674398	         20.91752728	         33.42717743	         86.51662706	         86.51662706	          0.14873274	          0.15110333	          0.18299981	          0.05929778	          0.05005041	          0.05000329	          0.05661775	          0.06088546	          0.05268658	          0.05009755	          0.05000128	          0.05013835	          0.09028569	          0.17489083	          0.21149112	          0.16556701	          0.05001288	          0.05001554	          0.06098853	          0.06088654	          0.16546484	          0.19989143	          0.06358299	          0.05974375	          0.08391138	          0.05000188	          0.15216856	          0.06841573	          0.24421169	          0.28172267	          0.19805503	          0.05000004	          0.05000011	          0.05000001	          0.05000017	          0.05082093	          0.05000140	          0.64949262	          0.35602829	          0.20007043	          0.53926466	          0.64449355	          0.50712358	          0.05000008	          0.14380367	          0.11283774	          0.17722220	          0.05000148	          0.05646278	          0.17488485	          0.09028091	          0.05010015	          0.07326995	          0.05005148	          0.06084793	          0.05000146	          0.06205281	          0.26065041	          0.35038745	          0.16104381	          0.07413508	          0.07411488	          0.11685023	          0.10132570	          0.07413958	          0.05005218	          0.05011843	          0.07084021	          0.21602611	          0.40039362	          0.07414106	          0.07413929	          0.06088769	          0.20783754	          0.06896057	          0.07350239	          0.06553111	          0.05000296	          0.06301334	          0.06088656	          0.09675035	          0.08003215	          0.10022091	          0.24117391	          0.33148185	          0.20560588	          0.46459885	          0.54946009	          0.09319469	          0.05351591	          0.06085308	          0.06705941	
          0.67927189	         -1.59143419	         -2.25559748	         -9.73178941	          0.86160072	          0.85825408	          0.00354354	         27.54989452	         -3.10797318	          0.25548799	        -16.59243292	         -0.04534671	          4.16995917	         -9.06265916	        -21.31738278	          7.99245866	        -20.10373811	          2.48049166	          7.89255272	         -0.04197405	          0.57743821	         -0.12417089	         35.77758794	          1.90551027	          5.14170811	          4.05790769	        -19.09286916	        -13.49913255	         14.55727947	          0.96427518	        -13.70378164	         10.78653035	         21.10263374	         34.46263245	         86.51662706	         86.51662706	          0.22465823	          0.28051950	          0.43056622	          0.05000322	          0.05000253	          0.32652683	          0.05847813	          0.05000036	          0.05000143	          0.05000029	          0.05699403	          0.06088615	          0.07414397	          0.14362252	          0.17367919	          0.16236990	          0.05000135	          0.06088720	          0.05008519	          0.05000109	          0.18605357	          0.19105249	          0.06088562	          0.05544559	          0.06890961	          0.10994663	          0.30655977	          0.05618489	          0.20054949	          0.23135388	          0.16264516	          0.06066468	          0.06088559	          0.06088567	          0.05000267	          0.06088562	          0.06088577	          0.60205430	          0.31021878	          0.17192449	          0.44284994	          0.66989510	          0.47885067	          0.05000046	          0.11809302	          0.09266349	          0.19769286	          0.06088217	          0.06088507	          0.14361780	          0.07413999	          0.05000633	          0.10885986	          0.05000096	          0.05000198	          0.05000052	          0.05096382	          0.24758558	          0.28775320	          0.13225384	          0.06088631	          0.06086879	          0.09595883	          0.08849400	          0.06088556	          0.05003639	          0.05002471	          0.05818192	          0.17740301	          0.33585295	          0.06088577	          0.06088482	          0.05000183	          0.17067829	          0.09026809	          0.08853985	          0.06619392	          0.05000031	          0.05174749	          0.05000080	          0.07945239	          0.06572364	          0.08230257	          0.22373719	          0.29926844	          0.18424057	          0.49211874	          0.75917978	          0.33945513	          0.08342912	          0.05000924	          0.05507000	
          0.69233481	         -1.56736625	         -2.45942349	         -9.65462837	          0.88380643	          0.85618003	          0.00318087	         26.88824303	         -3.01018098	          0.44617150	        -16.36305967	         -0.14855532	          4.00565382	        -10.42569215	        -23.62681885	          7.05739373	        -21.73281963	          2.26161905	          8.40494443	         -0.02127255	          0.41458770	         -0.14140896	         32.36575199	          2.15389016	          4.92715285	          4.12348341	        -21.02627326	        -13.54263543	         15.08190332	          0.64699177	        -13.77603330	         11.25346814	         21.09290815	         35.39155897	         86.51662706	         86.51662706	          0.29883642	          0.40087328	          0.48732312	          0.15849073	          0.21082103	          0.26815095	          0.05002221	          0.06742378	          0.05852237	          0.06088487	          0.05000095	          0.05000056	          0.06088792	          0.11794476	          0.16948573	          0.17922139	          0.05000041	          0.05000250	          0.06088832	          0.28842310	          0.25455332	          0.23252797	          0.05000018	          0.05000016	          0.13489295	          0.09029032	          0.25175114	          0.05000007	          0.16469420	          0.23244118	          0.13356667	          0.05000003	          0.05000007	          0.05000000	          0.05000002	          0.05000036	          0.05000027	          0.73547574	          0.35863406	          0.17434306	          0.70219585	          0.78743385	          0.60931330	          0.05690881	          0.09697918	          0.07609620	          0.16234792	          0.05000011	          0.05000004	          0.13840419	          0.06088496	          0.05000031	          0.15075259	          0.05000039	          0.05000069	          0.05000042	          0.05001344	          0.25751492	          0.24779173	          0.10861020	          0.05000668	          0.05000191	          0.07880262	          0.07268121	          0.05000096	          0.05000126	          0.05000086	          0.05000078	          0.14568535	          0.33296316	          0.05000014	          0.05000037	          0.05000018	          0.14016273	          0.07414155	          0.07414155	          0.07414154	          0.06088550	          0.05015810	          0.07413995	          0.06524715	          0.05397337	          0.06758792	          0.32991261	          0.29367865	          0.17173199	          0.57408248	          0.62345121	          0.27876407	          0.12095773	          0.05000002	          0.05000009	
